<?xml version="1.0" encoding="UTF-8"?>
<!DOCTYPE svg PUBLIC "-//W3C//DTD SVG 1.1//EN" "http://www.w3.org/Graphics/SVG/1.1/DTD/svg11.dtd">
<svg xmlns="http://www.w3.org/2000/svg" version="1.1" width="1000px" height="142px" style="shape-rendering:geometricPrecision; text-rendering:geometricPrecision; image-rendering:optimizeQuality; fill-rule:evenodd; clip-rule:evenodd" xmlns:xlink="http://www.w3.org/1999/xlink">
<g><path style="opacity:0.946" fill="#fefffe" d="M 408.5,5.5 C 409.826,9.61389 410.493,14.1139 410.5,19C 410.167,23.5 409.833,28 409.5,32.5C 394.256,40.0388 379.089,47.7055 364,55.5C 363.5,81.1645 363.333,106.831 363.5,132.5C 355.167,132.5 346.833,132.5 338.5,132.5C 338.5,91.1667 338.5,49.8333 338.5,8.5C 346.833,8.5 355.167,8.5 363.5,8.5C 363.17,15.5316 363.503,22.5316 364.5,29.5C 379.229,21.4717 393.895,13.4717 408.5,5.5 Z"/></g>
<g><path style="opacity:0.95" fill="#fefffe" d="M 57.5,6.5 C 76.2006,4.06452 91.8673,9.73119 104.5,23.5C 121.569,6.40127 141.569,1.90127 164.5,10C 179.532,16.3643 188.699,27.531 192,43.5C 192.5,73.1648 192.667,102.831 192.5,132.5C 184.167,132.5 175.833,132.5 167.5,132.5C 167.667,105.165 167.5,77.8313 167,50.5C 161.225,33.1924 149.392,26.6924 131.5,31C 123.333,33.8333 117.833,39.3333 115,47.5C 113.533,75.7828 113.033,104.116 113.5,132.5C 105.167,132.5 96.8333,132.5 88.5,132.5C 88.9569,104.791 88.4569,77.1241 87,49.5C 78.7464,29.9717 64.9131,24.805 45.5,34C 40.4219,37.7368 36.9219,42.5701 35,48.5C 33.5426,76.4575 33.0426,104.458 33.5,132.5C 25.1667,132.5 16.8333,132.5 8.5,132.5C 8.5,91.1667 8.5,49.8333 8.5,8.5C 16.8333,8.5 25.1667,8.5 33.5,8.5C 33.3343,12.8461 33.501,17.1794 34,21.5C 40.1773,13.8075 48.0106,8.80753 57.5,6.5 Z"/></g>
<g><path style="opacity:0.949" fill="#fefffe" d="M 248.5,6.5 C 272.044,2.95096 291.211,10.2843 306,28.5C 309.522,34.3987 311.855,40.732 313,47.5C 313.5,75.8314 313.667,104.165 313.5,132.5C 305.167,132.5 296.833,132.5 288.5,132.5C 288.666,128.486 288.499,124.486 288,120.5C 278.375,130.046 266.708,134.713 253,134.5C 221.461,133.048 207.461,116.715 211,85.5C 216.942,68.2535 229.108,58.7535 247.5,57C 261.15,55.8344 274.817,55.0011 288.5,54.5C 287.276,39.7723 279.276,31.2723 264.5,29C 247.479,27.5078 235.146,34.3411 227.5,49.5C 221.009,46.4215 214.675,43.0882 208.5,39.5C 215.898,21.085 229.232,10.085 248.5,6.5 Z M 277.5,75.5 C 281.5,75.5 285.5,75.5 289.5,75.5C 290.063,98.4373 278.897,110.771 256,112.5C 238.369,111.868 232.035,103.201 237,86.5C 239.687,82.8062 243.187,80.3062 247.5,79C 257.603,77.5001 267.603,76.3334 277.5,75.5 Z"/></g>
<g><path style="opacity:0.947" fill="#fefffe" d="M 462.5,6.5 C 485.789,3.31818 505.622,9.98484 522,26.5C 525.862,30.8878 528.695,35.8878 530.5,41.5C 524.568,46.4767 517.902,50.4767 510.5,53.5C 501.389,35.4423 486.722,27.609 466.5,30C 446.349,35.601 436.016,48.9343 435.5,70C 435.797,88.2823 444.13,101.282 460.5,109C 482.987,115.122 499.653,107.955 510.5,87.5C 516.675,91.0882 523.009,94.4215 529.5,97.5C 530.599,100.359 530.099,103.026 528,105.5C 509.55,131.131 484.883,139.798 454,131.5C 431.613,123.782 417.613,108.448 412,85.5C 406.063,54.9393 415.897,31.106 441.5,14C 448.295,10.571 455.295,8.07099 462.5,6.5 Z"/></g>
<g><path style="opacity:0.952" fill="#fefffe" d="M 590.5,6.5 C 617.082,2.96366 638.916,11.297 656,31.5C 668.557,51.9998 670.89,73.6665 663,96.5C 650.839,121.675 630.673,134.342 602.5,134.5C 569.226,133.636 548.059,117.303 539,85.5C 533.154,43.8021 550.321,17.4688 590.5,6.5 Z M 595.5,29.5 C 628.609,29.1094 644.109,45.4427 642,78.5C 635.891,101.974 620.725,112.807 596.5,111C 570.139,103.801 559.306,86.634 564,59.5C 568.891,43.4382 579.391,33.4382 595.5,29.5 Z"/></g>
<g><path style="opacity:0.962" fill="#fefffe" d="M 682.5,8.5 C 690.833,8.5 699.167,8.5 707.5,8.5C 707.034,36.5506 707.534,64.5506 709,92.5C 716.598,108.709 729.098,114.209 746.5,109C 755.256,105.245 760.756,98.7447 763,89.5C 764.446,62.5373 764.946,35.5373 764.5,8.5C 772.5,8.5 780.5,8.5 788.5,8.5C 788.333,41.1684 788.5,73.835 789,106.5C 791.944,115.165 794.777,123.832 797.5,132.5C 788.5,132.5 779.5,132.5 770.5,132.5C 769.835,128.173 768.335,124.173 766,120.5C 756.207,130.157 744.373,134.824 730.5,134.5C 709.893,134.124 695.06,124.791 686,106.5C 684.687,102.58 683.687,98.5796 683,94.5C 682.5,65.8353 682.333,37.1686 682.5,8.5 Z"/></g>
<g><path style="opacity:0.942" fill="#fefffe" d="M 802.5,9.5 C 811.991,8.34204 821.658,8.17537 831.5,9C 840.667,23.5 849.833,38 859,52.5C 868.624,38.0855 878.124,23.5855 887.5,9C 897.167,8.33333 906.833,8.33333 916.5,9C 903.091,28.7407 890.091,48.7407 877.5,69C 890.318,89.1564 903.151,109.323 916,129.5C 916.483,130.448 916.649,131.448 916.5,132.5C 907.161,132.666 897.827,132.5 888.5,132C 879.208,116.579 869.541,101.413 859.5,86.5C 849.598,101.294 839.931,116.294 830.5,131.5C 820.833,132.833 811.167,132.833 801.5,131.5C 814.439,110.564 827.773,89.8978 841.5,69.5C 828.974,49.094 815.974,29.094 802.5,9.5 Z"/></g>
<g><path style="opacity:0.879" fill="#fefffe" d="M 957.5,67.5 C 980.196,70.0308 990.696,82.6975 989,105.5C 983.191,125.169 970.025,133.335 949.5,130C 929.936,123.383 922.436,109.883 927,89.5C 932.586,75.7385 942.753,68.4052 957.5,67.5 Z M 972.5,115.5 C 961.84,123.723 951.34,123.39 941,114.5C 933.399,103.609 933.899,93.109 942.5,83C 954.05,75.0723 964.883,75.9057 975,85.5C 981.568,96.2583 980.734,106.258 972.5,115.5 Z M 954.5,91.5 C 956.527,91.3379 958.527,91.5045 960.5,92C 961.833,93.6667 961.833,95.3333 960.5,97C 958.527,97.4955 956.527,97.6621 954.5,97.5C 954.5,95.5 954.5,93.5 954.5,91.5 Z"/></g>
<g><path style="opacity:0.843" fill="#fefffe" d="M 972.5,115.5 C 969.167,115.5 965.833,115.5 962.5,115.5C 962.193,110.194 959.526,106.861 954.5,105.5C 954.5,108.833 954.5,112.167 954.5,115.5C 951.5,115.5 948.5,115.5 945.5,115.5C 945.5,104.833 945.5,94.1667 945.5,83.5C 952.241,83.1712 958.908,83.6712 965.5,85C 971.796,90.9727 972.129,97.3061 966.5,104C 970.122,107.087 972.122,110.92 972.5,115.5 Z M 954.5,91.5 C 954.5,93.5 954.5,95.5 954.5,97.5C 956.527,97.6621 958.527,97.4955 960.5,97C 961.833,95.3333 961.833,93.6667 960.5,92C 958.527,91.5045 956.527,91.3379 954.5,91.5 Z"/></g>
</svg>
