<svg xmlns="http://www.w3.org/2000/svg" width="200" height="28.4" viewBox="0 0 1000 142">
  <defs>
    <style>
      .cls-1 {
        fill: #fff;
        fill-rule: evenodd;
      }
    </style>
  </defs>
  <path id="marcoux" class="cls-1" d="M989.415,100.032q0-13.565-9.262-22.316a32.274,32.274,0,0,0-44.2,0q-9.266,8.752-9.262,22.316,0,13.422,9.262,22.171a32.275,32.275,0,0,0,44.2,0q9.261-8.753,9.262-22.171h0ZM942.157,83.7a23.286,23.286,0,0,1,31.8,0q6.417,6.273,6.418,16.336,0,9.921-6.418,16.19a23.286,23.286,0,0,1-31.8,0q-6.42-6.268-6.418-16.19Q935.739,89.968,942.157,83.7Zm12.4,31.505v-9.918h3.5l5.835,7.439V115.2h8.168v-3.646l-6.272-7.585q5.1-2.625,5.105-8.9a9.724,9.724,0,0,0-3.063-7.22,10.624,10.624,0,0,0-7.731-2.99H946.678V115.2h7.877Zm0-23.774h4.667a3.634,3.634,0,0,1,2.553,1.021,3.434,3.434,0,0,1,1.094,2.625,3.5,3.5,0,0,1-3.647,3.646h-4.667V91.427ZM9.683,132.241H33.564V59.165c0-17.433,11.463-29.612,27.941-29.612,16.239,0,27.7,11.224,27.7,29.612v73.076h23.881V59.165c0-17.433,11.7-29.612,28.179-29.612,16,0,27.7,11.224,27.7,29.612v73.076H192.85V53.434c0-25.791-20.06-46.329-48.478-46.329-21.016,0-33.2,10.985-39.4,19.1C96.849,14.747,83.475,7.1,67,7.1c-14.806,0-27.7,6.925-33.433,17.672V9.254H9.683V132.241Zm243.594,2.388c15.762,0,30.09-6.687,36.538-16.478v14.09h23.642V54.628c0-23.4-18.866-47.523-53.732-47.523-29.135,0-44.419,17.911-49.911,33.194l18.866,9.552c3.1-9.075,11.94-21.254,30.806-21.254,19.583,0,30.329,13.373,30.329,25.075v1.433l-36.3,2.388c-27.7,1.91-42.747,17.433-42.747,38.926C210.769,118.867,228.68,134.629,253.277,134.629ZM234.65,95.942c0-11.7,8.836-17.672,20.538-18.388l35.105-2.388v7.642c0,16-12.9,30.807-34.628,30.807C243.725,113.614,234.65,106.927,234.65,95.942Zm105.081,36.3h23.881V55.583L410.18,32.419V6.627l-46.568,24.6V9.254H339.731V132.241Zm134.931,2.149c31.045,0,49.672-18.627,56.359-35.1L510.244,88.539c-4.3,12.179-16.717,23.881-35.582,23.881-23.165,0-39.165-18.389-39.165-41.792,0-23.881,16-41.314,39.165-41.314,19.582,0,31.284,12.179,35.582,24.359l20.777-10.746C524.334,25.971,506.662,7.1,474.662,7.1c-35.1,0-63.285,25.314-63.285,63.523C411.377,109.076,440.273,134.39,474.662,134.39Zm128.484,0c37.732,0,64.717-26.985,64.717-63.523,0-36.777-27.224-63.762-64.717-63.762S538.429,34.09,538.429,70.867,565.414,134.39,603.146,134.39Zm-40.6-63.523c0-24.359,17.671-41.553,40.6-41.553s40.6,17.194,40.6,41.553-17.672,41.553-40.6,41.553C580.459,112.42,562.549,95.225,562.549,70.867ZM730.915,134.39c18.866,0,31.045-8.119,36.3-15.045l4.776,12.9h25.552l-8.6-24.6V9.254H765.064v72.6c0,18.15-12.657,30.09-29.134,30.09-16,0-28.657-10.985-28.657-30.09V9.254H683.392V87.106C683.392,113.852,702.735,134.39,730.915,134.39Zm71.409-2.149h27.7l29.851-47.285,29.851,47.285h27.224L876.832,69.2l39.4-59.941h-27.7L859.877,54.389l-28.9-45.135H803.757l39.165,60.419Z"/>
</svg>
